<svg width="445" height="98" viewBox="0 0 445 98" fill="none" xmlns="http://www.w3.org/2000/svg">
<path d="M94.9837 17.249L95.4067 16.403H107.58L107.909 17.249H94.9837ZM118.202 30.174C118.327 30.174 118.39 30.268 118.39 30.456C118.39 30.644 118.327 30.738 118.202 30.738C117.325 30.738 116.416 30.7066 115.476 30.644C114.567 30.5813 113.69 30.55 112.844 30.55C111.873 30.55 111.027 30.5813 110.306 30.644C109.617 30.7066 108.849 30.738 108.003 30.738C107.878 30.738 107.815 30.644 107.815 30.456C107.815 30.268 107.878 30.174 108.003 30.174C109.758 30.174 110.854 29.939 111.293 29.469C111.763 28.999 111.7 28.106 111.105 26.79L100.483 3.948L101.376 3.149L92.3047 24.957C91.5214 26.8683 91.4587 28.2156 92.1167 28.999C92.7747 29.7823 94.169 30.174 96.2997 30.174C96.4564 30.174 96.5347 30.268 96.5347 30.456C96.5347 30.644 96.4564 30.738 96.2997 30.738C95.3597 30.738 94.498 30.7066 93.7147 30.644C92.9314 30.5813 91.9444 30.55 90.7537 30.55C89.657 30.55 88.764 30.5813 88.0747 30.644C87.4167 30.7066 86.6177 30.738 85.6777 30.738C85.5524 30.738 85.4897 30.644 85.4897 30.456C85.4897 30.268 85.5524 30.174 85.6777 30.174C86.5237 30.174 87.26 30.0173 87.8867 29.704C88.5134 29.3906 89.093 28.8266 89.6257 28.012C90.1897 27.1973 90.785 26.038 91.4117 24.534L101.235 0.893C101.298 0.799001 101.392 0.752002 101.517 0.752002C101.674 0.752002 101.768 0.799001 101.799 0.893L112.703 24.299C113.424 25.8656 114.066 27.0876 114.63 27.965C115.194 28.811 115.758 29.3906 116.322 29.704C116.886 30.0173 117.513 30.174 118.202 30.174ZM132.501 25.85L132.971 2.444L134.005 2.538L133.582 25.85C133.551 27.448 133.802 28.576 134.334 29.234C134.898 29.8606 135.964 30.174 137.53 30.174C137.593 30.174 137.624 30.268 137.624 30.456C137.624 30.644 137.593 30.738 137.53 30.738C136.841 30.738 136.12 30.7223 135.368 30.691C134.648 30.6596 133.849 30.644 132.971 30.644C132.219 30.644 131.499 30.6596 130.809 30.691C130.12 30.7223 129.462 30.738 128.835 30.738C128.773 30.738 128.741 30.644 128.741 30.456C128.741 30.268 128.773 30.174 128.835 30.174C130.151 30.174 131.076 29.8606 131.608 29.234C132.172 28.576 132.47 27.448 132.501 25.85ZM164.79 30.174C164.884 30.174 164.931 30.268 164.931 30.456C164.931 30.644 164.884 30.738 164.79 30.738C164.038 30.738 163.192 30.7223 162.252 30.691C161.344 30.6596 160.372 30.644 159.338 30.644C158.367 30.644 157.474 30.6596 156.659 30.691C155.845 30.7223 155.108 30.738 154.45 30.738C154.388 30.738 154.356 30.644 154.356 30.456C154.356 30.268 154.388 30.174 154.45 30.174C156.017 30.174 157.02 29.9703 157.458 29.563C157.928 29.1556 158.132 28.2783 158.069 26.931L157.223 3.76L158.586 2.021L146.272 30.409C146.241 30.5343 146.116 30.597 145.896 30.597C145.677 30.597 145.536 30.5343 145.473 30.409L134.005 5.264C133.003 3.03933 131.389 1.927 129.164 1.927C129.102 1.927 129.07 1.833 129.07 1.645C129.07 1.457 129.102 1.363 129.164 1.363C129.634 1.363 130.136 1.37867 130.668 1.41C131.201 1.44133 131.64 1.457 131.984 1.457C132.423 1.457 132.83 1.44133 133.206 1.41C133.582 1.37867 133.864 1.363 134.052 1.363C134.491 1.363 134.836 1.504 135.086 1.786C135.337 2.068 135.713 2.74167 136.214 3.807L146.977 27.072L145.755 29.046L157.317 2.538C157.474 2.19333 157.678 1.91133 157.928 1.692C158.21 1.47267 158.477 1.363 158.727 1.363C158.884 1.363 159.119 1.37867 159.432 1.41C159.746 1.44133 160.106 1.457 160.513 1.457C161.328 1.457 161.986 1.44133 162.487 1.41C162.989 1.37867 163.521 1.363 164.085 1.363C164.148 1.363 164.179 1.457 164.179 1.645C164.179 1.833 164.148 1.927 164.085 1.927C162.55 1.927 161.422 2.13067 160.701 2.538C159.981 2.914 159.636 3.76 159.667 5.076L160.56 26.931C160.592 27.8396 160.701 28.529 160.889 28.999C161.109 29.469 161.516 29.7823 162.111 29.939C162.707 30.0956 163.6 30.174 164.79 30.174ZM183.735 17.249L184.158 16.403H196.331L196.66 17.249H183.735ZM206.953 30.174C207.078 30.174 207.141 30.268 207.141 30.456C207.141 30.644 207.078 30.738 206.953 30.738C206.076 30.738 205.167 30.7066 204.227 30.644C203.318 30.5813 202.441 30.55 201.595 30.55C200.624 30.55 199.778 30.5813 199.057 30.644C198.368 30.7066 197.6 30.738 196.754 30.738C196.629 30.738 196.566 30.644 196.566 30.456C196.566 30.268 196.629 30.174 196.754 30.174C198.509 30.174 199.605 29.939 200.044 29.469C200.514 28.999 200.451 28.106 199.856 26.79L189.234 3.948L190.127 3.149L181.056 24.957C180.273 26.8683 180.21 28.2156 180.868 28.999C181.526 29.7823 182.92 30.174 185.051 30.174C185.208 30.174 185.286 30.268 185.286 30.456C185.286 30.644 185.208 30.738 185.051 30.738C184.111 30.738 183.249 30.7066 182.466 30.644C181.683 30.5813 180.696 30.55 179.505 30.55C178.408 30.55 177.515 30.5813 176.826 30.644C176.168 30.7066 175.369 30.738 174.429 30.738C174.304 30.738 174.241 30.644 174.241 30.456C174.241 30.268 174.304 30.174 174.429 30.174C175.275 30.174 176.011 30.0173 176.638 29.704C177.265 29.3906 177.844 28.8266 178.377 28.012C178.941 27.1973 179.536 26.038 180.163 24.534L189.986 0.893C190.049 0.799001 190.143 0.752002 190.268 0.752002C190.425 0.752002 190.519 0.799001 190.55 0.893L201.454 24.299C202.175 25.8656 202.817 27.0876 203.381 27.965C203.945 28.811 204.509 29.3906 205.073 29.704C205.637 30.0173 206.264 30.174 206.953 30.174ZM241.932 30.738C241.4 30.738 240.522 30.127 239.3 28.905C238.078 27.683 236.606 25.944 234.882 23.688C233.159 21.4006 231.232 18.706 229.101 15.604L231.357 14.899C234.052 18.6903 236.339 21.714 238.219 23.97C240.099 26.1946 241.76 27.7926 243.201 28.764C244.643 29.704 246.037 30.174 247.384 30.174C247.478 30.174 247.525 30.268 247.525 30.456C247.525 30.644 247.478 30.738 247.384 30.738C245.974 30.738 244.815 30.738 243.906 30.738C243.029 30.738 242.371 30.738 241.932 30.738ZM229.665 1.222C232.078 1.222 233.911 1.80167 235.164 2.961C236.449 4.12033 237.091 5.62433 237.091 7.473C237.091 9.13367 236.606 10.6376 235.634 11.985C234.663 13.3323 233.363 14.3976 231.733 15.181C230.135 15.9643 228.365 16.356 226.422 16.356C226.14 16.356 225.811 16.3403 225.435 16.309C225.059 16.2776 224.715 16.2463 224.401 16.215V26.931C224.401 27.8396 224.495 28.529 224.683 28.999C224.871 29.469 225.263 29.7823 225.858 29.939C226.485 30.0956 227.394 30.174 228.584 30.174C228.678 30.174 228.725 30.268 228.725 30.456C228.725 30.644 228.678 30.738 228.584 30.738C227.832 30.738 227.002 30.7223 226.093 30.691C225.216 30.6596 224.229 30.644 223.132 30.644C222.13 30.644 221.158 30.6596 220.218 30.691C219.278 30.7223 218.432 30.738 217.68 30.738C217.618 30.738 217.586 30.644 217.586 30.456C217.586 30.268 217.618 30.174 217.68 30.174C218.871 30.174 219.764 30.0956 220.359 29.939C220.986 29.7823 221.409 29.469 221.628 28.999C221.848 28.529 221.957 27.8396 221.957 26.931V5.17C221.957 4.26133 221.848 3.58767 221.628 3.149C221.44 2.679 221.049 2.36567 220.453 2.209C219.858 2.021 218.965 1.927 217.774 1.927C217.68 1.927 217.633 1.833 217.633 1.645C217.633 1.457 217.68 1.363 217.774 1.363C218.495 1.363 219.31 1.39433 220.218 1.457C221.158 1.48833 222.13 1.504 223.132 1.504C224.104 1.504 225.232 1.457 226.516 1.363C227.801 1.269 228.851 1.222 229.665 1.222ZM234.459 8.742C234.459 7.05 234.177 5.70267 233.613 4.7C233.081 3.69733 232.297 2.97667 231.263 2.538C230.261 2.068 229.039 1.833 227.597 1.833C226.469 1.833 225.655 2.03667 225.153 2.444C224.652 2.85133 224.401 3.79133 224.401 5.264V15.134C224.84 15.1653 225.31 15.1966 225.811 15.228C226.344 15.2593 226.814 15.275 227.221 15.275C229.916 15.275 231.796 14.711 232.861 13.583C233.927 12.455 234.459 10.8413 234.459 8.742ZM260.025 2.162C258.051 2.162 256.61 2.632 255.701 3.572C254.824 4.512 254.213 6.18833 253.868 8.601C253.868 8.66367 253.774 8.695 253.586 8.695C253.398 8.695 253.304 8.66367 253.304 8.601C253.367 8.225 253.43 7.67667 253.492 6.956C253.586 6.23533 253.665 5.46767 253.727 4.653C253.79 3.807 253.837 3.008 253.868 2.256C253.931 1.47267 253.962 0.830334 253.962 0.329002C253.962 0.172335 254.056 0.0940016 254.244 0.0940016C254.432 0.0940016 254.526 0.172335 254.526 0.329002C254.526 0.642335 254.667 0.877334 254.949 1.034C255.263 1.15933 255.607 1.25333 255.983 1.316C256.391 1.34733 256.735 1.363 257.017 1.363C259.712 1.457 262.861 1.504 266.464 1.504C268.689 1.504 270.444 1.48833 271.728 1.457C273.044 1.39433 274.313 1.363 275.535 1.363C276.569 1.363 277.368 1.30033 277.932 1.175C278.528 1.01833 278.904 0.689335 279.06 0.188001C279.092 0.0626668 279.186 0 279.342 0C279.499 0 279.577 0.0626668 279.577 0.188001C279.546 0.658 279.499 1.28467 279.436 2.068C279.374 2.85133 279.327 3.68167 279.295 4.559C279.264 5.405 279.233 6.204 279.201 6.956C279.17 7.67667 279.154 8.225 279.154 8.601C279.154 8.66367 279.06 8.695 278.872 8.695C278.684 8.695 278.59 8.66367 278.59 8.601C278.59 6.18833 278.183 4.512 277.368 3.572C276.554 2.632 275.065 2.162 272.903 2.162C271.431 2.162 270.318 2.22467 269.566 2.35C268.846 2.444 268.36 2.71033 268.109 3.149C267.89 3.55633 267.78 4.26133 267.78 5.264V26.931C267.78 27.8396 267.89 28.529 268.109 28.999C268.329 29.469 268.767 29.7823 269.425 29.939C270.115 30.0956 271.149 30.174 272.527 30.174C272.59 30.174 272.621 30.268 272.621 30.456C272.621 30.644 272.59 30.738 272.527 30.738C271.713 30.738 270.788 30.7223 269.754 30.691C268.752 30.6596 267.655 30.644 266.464 30.644C265.336 30.644 264.255 30.6596 263.221 30.691C262.219 30.7223 261.294 30.738 260.448 30.738C260.386 30.738 260.354 30.644 260.354 30.456C260.354 30.268 260.386 30.174 260.448 30.174C261.796 30.174 262.814 30.0956 263.503 29.939C264.193 29.7823 264.647 29.469 264.866 28.999C265.117 28.529 265.242 27.8396 265.242 26.931V5.17C265.242 4.16733 265.117 3.46233 264.866 3.055C264.616 2.61633 264.114 2.36567 263.362 2.303C262.61 2.209 261.498 2.162 260.025 2.162ZM303.681 17.108L311.013 6.016C311.89 4.63733 312.203 3.619 311.953 2.961C311.702 2.27167 310.887 1.927 309.509 1.927C309.446 1.927 309.415 1.833 309.415 1.645C309.415 1.457 309.446 1.363 309.509 1.363C310.323 1.363 311.107 1.39433 311.859 1.457C312.611 1.48833 313.582 1.504 314.773 1.504C315.556 1.504 316.183 1.48833 316.653 1.457C317.154 1.39433 317.749 1.363 318.439 1.363C318.501 1.363 318.533 1.457 318.533 1.645C318.533 1.833 318.501 1.927 318.439 1.927C317.655 1.927 316.888 2.09933 316.136 2.444C315.384 2.75733 314.663 3.22733 313.974 3.854C313.316 4.48067 312.689 5.24833 312.094 6.157L304.433 17.766L303.681 17.108ZM303.728 18.001L294.939 5.264C294.124 4.042 293.325 3.18033 292.542 2.679C291.758 2.17767 290.787 1.927 289.628 1.927C289.534 1.927 289.487 1.833 289.487 1.645C289.487 1.457 289.534 1.363 289.628 1.363C290.16 1.363 290.724 1.39433 291.32 1.457C291.946 1.48833 292.526 1.504 293.059 1.504C293.905 1.504 294.688 1.504 295.409 1.504C296.161 1.47267 296.866 1.44133 297.524 1.41C298.182 1.37867 298.777 1.363 299.31 1.363C299.372 1.363 299.404 1.457 299.404 1.645C299.404 1.833 299.372 1.927 299.31 1.927C298.025 1.927 297.21 2.068 296.866 2.35C296.521 2.632 296.599 3.11767 297.101 3.807L305.467 15.839L303.728 18.001ZM302.976 16.168L305.467 15.745V26.931C305.467 27.8396 305.561 28.529 305.749 28.999C305.937 29.469 306.328 29.7823 306.924 29.939C307.519 30.0956 308.412 30.174 309.603 30.174C309.697 30.174 309.744 30.268 309.744 30.456C309.744 30.644 309.697 30.738 309.603 30.738C308.882 30.738 308.067 30.7223 307.159 30.691C306.25 30.6596 305.263 30.644 304.198 30.644C303.164 30.644 302.177 30.6596 301.237 30.691C300.297 30.7223 299.466 30.738 298.746 30.738C298.652 30.738 298.605 30.644 298.605 30.456C298.605 30.268 298.652 30.174 298.746 30.174C299.936 30.174 300.829 30.0956 301.425 29.939C302.051 29.7823 302.459 29.469 302.647 28.999C302.866 28.529 302.976 27.8396 302.976 26.931V16.168ZM333.423 17.249L333.846 16.403H346.019L346.348 17.249H333.423ZM356.641 30.174C356.766 30.174 356.829 30.268 356.829 30.456C356.829 30.644 356.766 30.738 356.641 30.738C355.763 30.738 354.855 30.7066 353.915 30.644C353.006 30.5813 352.129 30.55 351.283 30.55C350.311 30.55 349.465 30.5813 348.745 30.644C348.055 30.7066 347.288 30.738 346.442 30.738C346.316 30.738 346.254 30.644 346.254 30.456C346.254 30.268 346.316 30.174 346.442 30.174C348.196 30.174 349.293 29.939 349.732 29.469C350.202 28.999 350.139 28.106 349.544 26.79L338.922 3.948L339.815 3.149L330.744 24.957C329.96 26.8683 329.898 28.2156 330.556 28.999C331.214 29.7823 332.608 30.174 334.739 30.174C334.895 30.174 334.974 30.268 334.974 30.456C334.974 30.644 334.895 30.738 334.739 30.738C333.799 30.738 332.937 30.7066 332.154 30.644C331.37 30.5813 330.383 30.55 329.193 30.55C328.096 30.55 327.203 30.5813 326.514 30.644C325.856 30.7066 325.057 30.738 324.117 30.738C323.991 30.738 323.929 30.644 323.929 30.456C323.929 30.268 323.991 30.174 324.117 30.174C324.963 30.174 325.699 30.0173 326.326 29.704C326.952 29.3906 327.532 28.8266 328.065 28.012C328.629 27.1973 329.224 26.038 329.851 24.534L339.674 0.893C339.736 0.799001 339.83 0.752002 339.956 0.752002C340.112 0.752002 340.206 0.799001 340.238 0.893L351.142 24.299C351.862 25.8656 352.505 27.0876 353.069 27.965C353.633 28.811 354.197 29.3906 354.761 29.704C355.325 30.0173 355.951 30.174 356.641 30.174ZM12.032 80.57L12.549 80.147C14.335 80.147 15.9017 80.4916 17.249 81.181C18.5963 81.8703 19.6303 82.8103 20.351 84.001C21.103 85.1916 21.479 86.539 21.479 88.043C21.479 89.735 21.0873 91.2546 20.304 92.602C19.5207 93.9493 18.4397 95.0146 17.061 95.798C15.7137 96.55 14.194 96.926 12.502 96.926C11.468 96.926 10.3243 96.879 9.071 96.785C7.81767 96.691 6.64267 96.644 5.546 96.644C4.54334 96.644 3.572 96.6596 2.632 96.691C1.692 96.7223 0.846 96.738 0.094 96.738C0.0313333 96.738 0 96.644 0 96.456C0 96.268 0.0313333 96.174 0.094 96.174C1.28467 96.174 2.17767 96.0956 2.773 95.939C3.39967 95.7823 3.82267 95.469 4.042 94.999C4.26134 94.529 4.371 93.8396 4.371 92.931V71.17C4.371 70.2613 4.26134 69.5876 4.042 69.149C3.854 68.679 3.46234 68.3656 2.867 68.209C2.27167 68.021 1.37867 67.927 0.188 67.927C0.094 67.927 0.0469999 67.833 0.0469999 67.645C0.0469999 67.457 0.094 67.363 0.188 67.363C0.908667 67.363 1.72334 67.3943 2.632 67.457C3.572 67.4883 4.54334 67.504 5.546 67.504C6.36067 67.504 7.30067 67.457 8.366 67.363C9.46267 67.269 10.3557 67.222 11.045 67.222C12.8937 67.222 14.3663 67.5196 15.463 68.115C16.591 68.679 17.4057 69.431 17.907 70.371C18.4083 71.311 18.659 72.345 18.659 73.473C18.659 75.259 18.0167 76.763 16.732 77.985C15.4787 79.207 13.912 80.0686 12.032 80.57ZM9.964 67.833C9.212 67.833 8.601 67.8956 8.131 68.021C7.661 68.115 7.31634 68.397 7.097 68.867C6.909 69.337 6.815 70.136 6.815 71.264V80.476L5.405 80.1C6.40767 80.1626 7.238 80.2096 7.896 80.241C8.554 80.241 8.93 80.241 9.024 80.241C11.6247 80.241 13.4577 79.63 14.523 78.408C15.5883 77.1546 16.121 75.6193 16.121 73.802C16.121 72.7366 15.9173 71.7496 15.51 70.841C15.134 69.9323 14.4917 69.2116 13.583 68.679C12.7057 68.115 11.4993 67.833 9.964 67.833ZM11.844 96.174C14.2253 96.174 15.9643 95.563 17.061 94.341C18.189 93.0876 18.753 91.38 18.753 89.218C18.753 86.868 18.0323 84.941 16.591 83.437C15.1497 81.933 13.1757 81.1653 10.669 81.134C9.79167 81.1026 8.93 81.1026 8.084 81.134C7.238 81.1653 6.392 81.2436 5.546 81.369L6.815 80.852V92.931C6.815 93.7143 6.94034 94.3566 7.191 94.858C7.44167 95.328 7.92734 95.6726 8.648 95.892C9.36867 96.08 10.434 96.174 11.844 96.174ZM59.4469 71.264C59.4469 70.3553 59.3529 69.666 59.1649 69.196C58.9769 68.726 58.5852 68.397 57.9899 68.209C57.3946 68.021 56.4859 67.927 55.2639 67.927C55.1699 67.927 55.1229 67.833 55.1229 67.645C55.1229 67.457 55.1699 67.363 55.2639 67.363C55.9846 67.363 56.7992 67.3943 57.7079 67.457C58.6479 67.4883 59.6506 67.504 60.7159 67.504C61.7186 67.504 62.6899 67.4883 63.6299 67.457C64.5699 67.3943 65.4002 67.363 66.1209 67.363C66.2149 67.363 66.2619 67.457 66.2619 67.645C66.2619 67.833 66.2149 67.927 66.1209 67.927C64.9302 67.927 64.0216 68.021 63.3949 68.209C62.7996 68.3656 62.3922 68.679 62.1729 69.149C61.9849 69.5876 61.8909 70.2613 61.8909 71.17V92.931C61.8909 93.8396 61.9849 94.529 62.1729 94.999C62.3922 95.469 62.7996 95.7823 63.3949 95.939C64.0216 96.0956 64.9302 96.174 66.1209 96.174C66.2149 96.174 66.2619 96.268 66.2619 96.456C66.2619 96.644 66.2149 96.738 66.1209 96.738C65.4002 96.738 64.5699 96.7223 63.6299 96.691C62.6899 96.6596 61.7186 96.644 60.7159 96.644C59.6506 96.644 58.6479 96.6596 57.7079 96.691C56.7992 96.7223 55.9846 96.738 55.2639 96.738C55.1699 96.738 55.1229 96.644 55.1229 96.456C55.1229 96.268 55.1699 96.174 55.2639 96.174C56.4859 96.174 57.3946 96.0956 57.9899 95.939C58.5852 95.7823 58.9769 95.469 59.1649 94.999C59.3529 94.529 59.4469 93.8396 59.4469 92.931V71.264ZM39.3309 81.886V80.993H60.4809V81.886H39.3309ZM38.2029 92.931V71.17C38.2029 70.2613 38.0932 69.5876 37.8739 69.149C37.6859 68.679 37.2942 68.3656 36.6989 68.209C36.1036 68.021 35.2106 67.927 34.0199 67.927C33.9572 67.927 33.9259 67.833 33.9259 67.645C33.9259 67.457 33.9572 67.363 34.0199 67.363C34.7719 67.363 35.6022 67.3943 36.5109 67.457C37.4509 67.4883 38.4222 67.504 39.4249 67.504C40.5216 67.504 41.5242 67.4883 42.4329 67.457C43.3416 67.3943 44.1562 67.363 44.8769 67.363C44.9396 67.363 44.9709 67.457 44.9709 67.645C44.9709 67.833 44.9396 67.927 44.8769 67.927C43.6862 67.927 42.7932 68.021 42.1979 68.209C41.6026 68.397 41.1952 68.726 40.9759 69.196C40.7879 69.666 40.6939 70.3553 40.6939 71.264V92.931C40.6939 93.8396 40.7879 94.529 40.9759 94.999C41.1639 95.469 41.5556 95.7823 42.1509 95.939C42.7776 96.0956 43.6862 96.174 44.8769 96.174C44.9396 96.174 44.9709 96.268 44.9709 96.456C44.9709 96.644 44.9396 96.738 44.8769 96.738C44.1249 96.738 43.2946 96.7223 42.3859 96.691C41.5086 96.6596 40.5216 96.644 39.4249 96.644C38.4222 96.644 37.4509 96.6596 36.5109 96.691C35.5709 96.7223 34.7249 96.738 33.9729 96.738C33.9102 96.738 33.8789 96.644 33.8789 96.456C33.8789 96.268 33.9102 96.174 33.9729 96.174C35.1636 96.174 36.0566 96.0956 36.6519 95.939C37.2786 95.7823 37.6859 95.469 37.8739 94.999C38.0932 94.529 38.2029 93.8396 38.2029 92.931ZM85.7581 83.249L86.1811 82.403H98.3541L98.6831 83.249H85.7581ZM108.976 96.174C109.102 96.174 109.164 96.268 109.164 96.456C109.164 96.644 109.102 96.738 108.976 96.738C108.099 96.738 107.19 96.7066 106.25 96.644C105.342 96.5813 104.464 96.55 103.618 96.55C102.647 96.55 101.801 96.5813 101.08 96.644C100.391 96.7066 99.6231 96.738 98.7771 96.738C98.6518 96.738 98.5891 96.644 98.5891 96.456C98.5891 96.268 98.6518 96.174 98.7771 96.174C100.532 96.174 101.629 95.939 102.067 95.469C102.537 94.999 102.475 94.106 101.879 92.79L91.2571 69.948L92.1501 69.149L83.0791 90.957C82.2958 92.8683 82.2331 94.2156 82.8911 94.999C83.5491 95.7823 84.9434 96.174 87.0741 96.174C87.2308 96.174 87.3091 96.268 87.3091 96.456C87.3091 96.644 87.2308 96.738 87.0741 96.738C86.1341 96.738 85.2724 96.7066 84.4891 96.644C83.7058 96.5813 82.7188 96.55 81.5281 96.55C80.4314 96.55 79.5384 96.5813 78.8491 96.644C78.1911 96.7066 77.3921 96.738 76.4521 96.738C76.3268 96.738 76.2641 96.644 76.2641 96.456C76.2641 96.268 76.3268 96.174 76.4521 96.174C77.2981 96.174 78.0344 96.0173 78.6611 95.704C79.2878 95.3906 79.8674 94.8266 80.4001 94.012C80.9641 93.1973 81.5594 92.038 82.1861 90.534L92.0091 66.893C92.0718 66.799 92.1658 66.752 92.2911 66.752C92.4478 66.752 92.5418 66.799 92.5731 66.893L103.477 90.299C104.198 91.8656 104.84 93.0876 105.404 93.965C105.968 94.811 106.532 95.3906 107.096 95.704C107.66 96.0173 108.287 96.174 108.976 96.174ZM165.984 66.188C166.047 66.0626 166.156 66 166.313 66C166.47 66 166.548 66.0626 166.548 66.188C166.485 66.658 166.423 67.2846 166.36 68.068C166.329 68.8513 166.282 69.6816 166.219 70.559C166.188 71.405 166.156 72.204 166.125 72.956C166.125 73.6766 166.125 74.225 166.125 74.601C166.125 74.6636 166.031 74.695 165.843 74.695C165.655 74.695 165.561 74.6636 165.561 74.601C165.561 72.157 165.154 70.465 164.339 69.525C163.524 68.585 162.02 68.115 159.827 68.115C158.354 68.115 157.258 68.1776 156.537 68.303C155.816 68.397 155.331 68.6633 155.08 69.102C154.861 69.5406 154.751 70.2613 154.751 71.264V92.931C154.751 93.8396 154.861 94.529 155.08 94.999C155.299 95.469 155.738 95.7823 156.396 95.939C157.085 96.0956 158.104 96.174 159.451 96.174C159.545 96.174 159.592 96.268 159.592 96.456C159.592 96.644 159.545 96.738 159.451 96.738C158.636 96.738 157.728 96.7223 156.725 96.691C155.722 96.6596 154.626 96.644 153.435 96.644C152.307 96.644 151.226 96.6596 150.192 96.691C149.158 96.7223 148.234 96.738 147.419 96.738C147.356 96.738 147.325 96.644 147.325 96.456C147.325 96.268 147.356 96.174 147.419 96.174C148.766 96.174 149.769 96.0956 150.427 95.939C151.116 95.7823 151.586 95.469 151.837 94.999C152.088 94.529 152.213 93.8396 152.213 92.931V71.17C152.213 70.1986 152.088 69.5093 151.837 69.102C151.618 68.6633 151.179 68.397 150.521 68.303C149.863 68.1776 148.86 68.115 147.513 68.115C146.134 68.115 145.053 68.162 144.27 68.256C143.518 68.3186 142.97 68.5536 142.625 68.961C142.28 69.337 142.061 69.9793 141.967 70.888C141.873 71.7653 141.81 73.003 141.779 74.601C141.779 74.6636 141.685 74.695 141.497 74.695C141.309 74.695 141.215 74.6636 141.215 74.601C141.246 73.003 141.231 71.7653 141.168 70.888C141.105 69.9793 140.886 69.337 140.51 68.961C140.165 68.5536 139.57 68.3186 138.724 68.256C137.878 68.162 136.672 68.115 135.105 68.115C133.82 68.115 132.849 68.1776 132.191 68.303C131.533 68.4283 131.094 68.726 130.875 69.196C130.656 69.6346 130.546 70.324 130.546 71.264V92.931C130.546 93.8396 130.64 94.529 130.828 94.999C131.016 95.469 131.408 95.7823 132.003 95.939C132.63 96.0956 133.538 96.174 134.729 96.174C134.792 96.174 134.823 96.268 134.823 96.456C134.823 96.644 134.792 96.738 134.729 96.738C133.977 96.738 133.147 96.7223 132.238 96.691C131.329 96.6596 130.327 96.644 129.23 96.644C128.102 96.644 127.021 96.6596 125.987 96.691C124.984 96.7223 124.06 96.738 123.214 96.738C123.151 96.738 123.12 96.644 123.12 96.456C123.12 96.268 123.151 96.174 123.214 96.174C124.561 96.174 125.58 96.0956 126.269 95.939C126.958 95.7823 127.413 95.469 127.632 94.999C127.883 94.529 128.008 93.8396 128.008 92.931V71.17C128.008 70.136 127.883 69.4153 127.632 69.008C127.381 68.5693 126.88 68.3186 126.128 68.256C125.376 68.162 124.264 68.115 122.791 68.115C120.817 68.115 119.376 68.585 118.467 69.525C117.59 70.465 116.979 72.157 116.634 74.601C116.634 74.6636 116.54 74.695 116.352 74.695C116.164 74.695 116.07 74.6636 116.07 74.601C116.133 74.225 116.195 73.6766 116.258 72.956C116.352 72.2353 116.43 71.4676 116.493 70.653C116.556 69.807 116.603 69.008 116.634 68.256C116.697 67.4726 116.728 66.8303 116.728 66.329C116.728 66.1723 116.822 66.094 117.01 66.094C117.198 66.094 117.292 66.1723 117.292 66.329C117.292 66.799 117.59 67.0966 118.185 67.222C118.812 67.316 119.344 67.363 119.783 67.363C122.478 67.457 125.627 67.504 129.23 67.504C131.298 67.504 132.943 67.4883 134.165 67.457C135.418 67.3943 136.609 67.363 137.737 67.363C138.928 67.363 139.758 67.3473 140.228 67.316C140.729 67.2846 141.027 67.1906 141.121 67.034C141.246 66.846 141.325 66.5483 141.356 66.141C141.356 66.0156 141.45 65.953 141.638 65.953C141.826 65.953 141.92 66.0156 141.92 66.141C141.889 66.5483 141.904 66.8303 141.967 66.987C142.03 67.1436 142.249 67.2376 142.625 67.269C143.001 67.3003 143.628 67.3316 144.505 67.363C147.043 67.457 150.02 67.504 153.435 67.504C155.628 67.504 157.383 67.4883 158.699 67.457C160.015 67.3943 161.284 67.363 162.506 67.363C163.54 67.363 164.339 67.3003 164.903 67.175C165.467 67.0183 165.827 66.6893 165.984 66.188ZM182.771 83.249L183.194 82.403H195.367L195.696 83.249H182.771ZM205.989 96.174C206.114 96.174 206.177 96.268 206.177 96.456C206.177 96.644 206.114 96.738 205.989 96.738C205.112 96.738 204.203 96.7066 203.263 96.644C202.354 96.5813 201.477 96.55 200.631 96.55C199.66 96.55 198.814 96.5813 198.093 96.644C197.404 96.7066 196.636 96.738 195.79 96.738C195.665 96.738 195.602 96.644 195.602 96.456C195.602 96.268 195.665 96.174 195.79 96.174C197.545 96.174 198.641 95.939 199.08 95.469C199.55 94.999 199.487 94.106 198.892 92.79L188.27 69.948L189.163 69.149L180.092 90.957C179.309 92.8683 179.246 94.2156 179.904 94.999C180.562 95.7823 181.956 96.174 184.087 96.174C184.244 96.174 184.322 96.268 184.322 96.456C184.322 96.644 184.244 96.738 184.087 96.738C183.147 96.738 182.285 96.7066 181.502 96.644C180.719 96.5813 179.732 96.55 178.541 96.55C177.444 96.55 176.551 96.5813 175.862 96.644C175.204 96.7066 174.405 96.738 173.465 96.738C173.34 96.738 173.277 96.644 173.277 96.456C173.277 96.268 173.34 96.174 173.465 96.174C174.311 96.174 175.047 96.0173 175.674 95.704C176.301 95.3906 176.88 94.8266 177.413 94.012C177.977 93.1973 178.572 92.038 179.199 90.534L189.022 66.893C189.085 66.799 189.179 66.752 189.304 66.752C189.461 66.752 189.555 66.799 189.586 66.893L200.49 90.299C201.211 91.8656 201.853 93.0876 202.417 93.965C202.981 94.811 203.545 95.3906 204.109 95.704C204.673 96.0173 205.3 96.174 205.989 96.174ZM233.227 66.846C234.637 66.846 235.843 66.9086 236.846 67.034C237.88 67.1593 238.835 67.3786 239.713 67.692C240.59 67.974 241.514 68.3656 242.486 68.867C242.674 68.9923 242.783 69.102 242.815 69.196C242.877 69.2586 242.924 69.4936 242.956 69.901L243.52 75.259C243.52 75.3216 243.426 75.3843 243.238 75.447C243.081 75.4783 242.987 75.4313 242.956 75.306C242.266 72.7053 241.123 70.7626 239.525 69.478C237.958 68.162 235.859 67.504 233.227 67.504C230.438 67.504 228.01 68.0836 225.942 69.243C223.874 70.4023 222.26 72.0473 221.101 74.178C219.973 76.3086 219.409 78.8153 219.409 81.698C219.409 83.7346 219.769 85.6616 220.49 87.479C221.242 89.2963 222.26 90.8943 223.545 92.273C224.861 93.6516 226.349 94.7326 228.01 95.516C229.67 96.2993 231.441 96.691 233.321 96.691C236.015 96.691 238.177 96.0486 239.807 94.764C241.436 93.448 242.595 91.5366 243.285 89.03C243.316 88.936 243.41 88.9046 243.567 88.936C243.755 88.9673 243.849 89.0143 243.849 89.077L243.473 94.059C243.441 94.435 243.394 94.67 243.332 94.764C243.269 94.858 243.144 94.9676 242.956 95.093C241.295 95.9703 239.744 96.5656 238.303 96.879C236.893 97.1923 235.216 97.349 233.274 97.349C229.984 97.349 227.07 96.7066 224.532 95.422C221.994 94.106 220.004 92.273 218.563 89.923C217.121 87.573 216.401 84.847 216.401 81.745C216.401 79.489 216.808 77.4523 217.623 75.635C218.469 73.8176 219.644 72.251 221.148 70.935C222.683 69.619 224.469 68.6163 226.506 67.927C228.542 67.2063 230.783 66.846 233.227 66.846ZM281.99 71.264C281.99 70.3553 281.896 69.666 281.708 69.196C281.52 68.726 281.129 68.397 280.533 68.209C279.938 68.021 279.029 67.927 277.807 67.927C277.713 67.927 277.666 67.833 277.666 67.645C277.666 67.457 277.713 67.363 277.807 67.363C278.528 67.363 279.343 67.3943 280.251 67.457C281.191 67.4883 282.194 67.504 283.259 67.504C284.262 67.504 285.233 67.4883 286.173 67.457C287.113 67.3943 287.944 67.363 288.664 67.363C288.758 67.363 288.805 67.457 288.805 67.645C288.805 67.833 288.758 67.927 288.664 67.927C287.474 67.927 286.565 68.021 285.938 68.209C285.343 68.3656 284.936 68.679 284.716 69.149C284.528 69.5876 284.434 70.2613 284.434 71.17V92.931C284.434 93.8396 284.528 94.529 284.716 94.999C284.936 95.469 285.343 95.7823 285.938 95.939C286.565 96.0956 287.474 96.174 288.664 96.174C288.758 96.174 288.805 96.268 288.805 96.456C288.805 96.644 288.758 96.738 288.664 96.738C287.944 96.738 287.113 96.7223 286.173 96.691C285.233 96.6596 284.262 96.644 283.259 96.644C282.194 96.644 281.191 96.6596 280.251 96.691C279.343 96.7223 278.528 96.738 277.807 96.738C277.713 96.738 277.666 96.644 277.666 96.456C277.666 96.268 277.713 96.174 277.807 96.174C279.029 96.174 279.938 96.0956 280.533 95.939C281.129 95.7823 281.52 95.469 281.708 94.999C281.896 94.529 281.99 93.8396 281.99 92.931V71.264ZM261.874 81.886V80.993H283.024V81.886H261.874ZM260.746 92.931V71.17C260.746 70.2613 260.637 69.5876 260.417 69.149C260.229 68.679 259.838 68.3656 259.242 68.209C258.647 68.021 257.754 67.927 256.563 67.927C256.501 67.927 256.469 67.833 256.469 67.645C256.469 67.457 256.501 67.363 256.563 67.363C257.315 67.363 258.146 67.3943 259.054 67.457C259.994 67.4883 260.966 67.504 261.968 67.504C263.065 67.504 264.068 67.4883 264.976 67.457C265.885 67.3943 266.7 67.363 267.42 67.363C267.483 67.363 267.514 67.457 267.514 67.645C267.514 67.833 267.483 67.927 267.42 67.927C266.23 67.927 265.337 68.021 264.741 68.209C264.146 68.397 263.739 68.726 263.519 69.196C263.331 69.666 263.237 70.3553 263.237 71.264V92.931C263.237 93.8396 263.331 94.529 263.519 94.999C263.707 95.469 264.099 95.7823 264.694 95.939C265.321 96.0956 266.23 96.174 267.42 96.174C267.483 96.174 267.514 96.268 267.514 96.456C267.514 96.644 267.483 96.738 267.42 96.738C266.668 96.738 265.838 96.7223 264.929 96.691C264.052 96.6596 263.065 96.644 261.968 96.644C260.966 96.644 259.994 96.6596 259.054 96.691C258.114 96.7223 257.268 96.738 256.516 96.738C256.454 96.738 256.422 96.644 256.422 96.456C256.422 96.268 256.454 96.174 256.516 96.174C257.707 96.174 258.6 96.0956 259.195 95.939C259.822 95.7823 260.229 95.469 260.417 94.999C260.637 94.529 260.746 93.8396 260.746 92.931ZM308.301 83.249L308.724 82.403H320.897L321.226 83.249H308.301ZM331.519 96.174C331.645 96.174 331.707 96.268 331.707 96.456C331.707 96.644 331.645 96.738 331.519 96.738C330.642 96.738 329.733 96.7066 328.793 96.644C327.885 96.5813 327.007 96.55 326.161 96.55C325.19 96.55 324.344 96.5813 323.623 96.644C322.934 96.7066 322.166 96.738 321.32 96.738C321.195 96.738 321.132 96.644 321.132 96.456C321.132 96.268 321.195 96.174 321.32 96.174C323.075 96.174 324.172 95.939 324.61 95.469C325.08 94.999 325.018 94.106 324.422 92.79L313.8 69.948L314.693 69.149L305.622 90.957C304.839 92.8683 304.776 94.2156 305.434 94.999C306.092 95.7823 307.487 96.174 309.617 96.174C309.774 96.174 309.852 96.268 309.852 96.456C309.852 96.644 309.774 96.738 309.617 96.738C308.677 96.738 307.816 96.7066 307.032 96.644C306.249 96.5813 305.262 96.55 304.071 96.55C302.975 96.55 302.082 96.5813 301.392 96.644C300.734 96.7066 299.935 96.738 298.995 96.738C298.87 96.738 298.807 96.644 298.807 96.456C298.807 96.268 298.87 96.174 298.995 96.174C299.841 96.174 300.578 96.0173 301.204 95.704C301.831 95.3906 302.411 94.8266 302.943 94.012C303.507 93.1973 304.103 92.038 304.729 90.534L314.552 66.893C314.615 66.799 314.709 66.752 314.834 66.752C314.991 66.752 315.085 66.799 315.116 66.893L326.02 90.299C326.741 91.8656 327.383 93.0876 327.947 93.965C328.511 94.811 329.075 95.3906 329.639 95.704C330.203 96.0173 330.83 96.174 331.519 96.174ZM366.499 96.738C365.966 96.738 365.089 96.127 363.867 94.905C362.645 93.683 361.172 91.944 359.449 89.688C357.726 87.4006 355.799 84.706 353.668 81.604L355.924 80.899C358.619 84.6903 360.906 87.714 362.786 89.97C364.666 92.1946 366.327 93.7926 367.768 94.764C369.209 95.704 370.604 96.174 371.951 96.174C372.045 96.174 372.092 96.268 372.092 96.456C372.092 96.644 372.045 96.738 371.951 96.738C370.541 96.738 369.382 96.738 368.473 96.738C367.596 96.738 366.938 96.738 366.499 96.738ZM354.232 67.222C356.645 67.222 358.478 67.8016 359.731 68.961C361.016 70.1203 361.658 71.6243 361.658 73.473C361.658 75.1336 361.172 76.6376 360.201 77.985C359.23 79.3323 357.929 80.3976 356.3 81.181C354.702 81.9643 352.932 82.356 350.989 82.356C350.707 82.356 350.378 82.3403 350.002 82.309C349.626 82.2776 349.281 82.2463 348.968 82.215V92.931C348.968 93.8396 349.062 94.529 349.25 94.999C349.438 95.469 349.83 95.7823 350.425 95.939C351.052 96.0956 351.96 96.174 353.151 96.174C353.245 96.174 353.292 96.268 353.292 96.456C353.292 96.644 353.245 96.738 353.151 96.738C352.399 96.738 351.569 96.7223 350.66 96.691C349.783 96.6596 348.796 96.644 347.699 96.644C346.696 96.644 345.725 96.6596 344.785 96.691C343.845 96.7223 342.999 96.738 342.247 96.738C342.184 96.738 342.153 96.644 342.153 96.456C342.153 96.268 342.184 96.174 342.247 96.174C343.438 96.174 344.331 96.0956 344.926 95.939C345.553 95.7823 345.976 95.469 346.195 94.999C346.414 94.529 346.524 93.8396 346.524 92.931V71.17C346.524 70.2613 346.414 69.5876 346.195 69.149C346.007 68.679 345.615 68.3656 345.02 68.209C344.425 68.021 343.532 67.927 342.341 67.927C342.247 67.927 342.2 67.833 342.2 67.645C342.2 67.457 342.247 67.363 342.341 67.363C343.062 67.363 343.876 67.3943 344.785 67.457C345.725 67.4883 346.696 67.504 347.699 67.504C348.67 67.504 349.798 67.457 351.083 67.363C352.368 67.269 353.417 67.222 354.232 67.222ZM359.026 74.742C359.026 73.05 358.744 71.7026 358.18 70.7C357.647 69.6973 356.864 68.9766 355.83 68.538C354.827 68.068 353.605 67.833 352.164 67.833C351.036 67.833 350.221 68.0366 349.72 68.444C349.219 68.8513 348.968 69.7913 348.968 71.264V81.134C349.407 81.1653 349.877 81.1966 350.378 81.228C350.911 81.2593 351.381 81.275 351.788 81.275C354.483 81.275 356.363 80.711 357.428 79.583C358.493 78.455 359.026 76.8413 359.026 74.742ZM391.239 83.108L398.571 72.016C399.448 70.6373 399.761 69.619 399.511 68.961C399.26 68.2716 398.445 67.927 397.067 67.927C397.004 67.927 396.973 67.833 396.973 67.645C396.973 67.457 397.004 67.363 397.067 67.363C397.881 67.363 398.665 67.3943 399.417 67.457C400.169 67.4883 401.14 67.504 402.331 67.504C403.114 67.504 403.741 67.4883 404.211 67.457C404.712 67.3943 405.307 67.363 405.997 67.363C406.059 67.363 406.091 67.457 406.091 67.645C406.091 67.833 406.059 67.927 405.997 67.927C405.213 67.927 404.446 68.0993 403.694 68.444C402.942 68.7573 402.221 69.2273 401.532 69.854C400.874 70.4806 400.247 71.2483 399.652 72.157L391.991 83.766L391.239 83.108ZM391.286 84.001L382.497 71.264C381.682 70.042 380.883 69.1803 380.1 68.679C379.316 68.1776 378.345 67.927 377.186 67.927C377.092 67.927 377.045 67.833 377.045 67.645C377.045 67.457 377.092 67.363 377.186 67.363C377.718 67.363 378.282 67.3943 378.878 67.457C379.504 67.4883 380.084 67.504 380.617 67.504C381.463 67.504 382.246 67.504 382.967 67.504C383.719 67.4726 384.424 67.4413 385.082 67.41C385.74 67.3786 386.335 67.363 386.868 67.363C386.93 67.363 386.962 67.457 386.962 67.645C386.962 67.833 386.93 67.927 386.868 67.927C385.583 67.927 384.768 68.068 384.424 68.35C384.079 68.632 384.157 69.1176 384.659 69.807L393.025 81.839L391.286 84.001ZM390.534 82.168L393.025 81.745V92.931C393.025 93.8396 393.119 94.529 393.307 94.999C393.495 95.469 393.886 95.7823 394.482 95.939C395.077 96.0956 395.97 96.174 397.161 96.174C397.255 96.174 397.302 96.268 397.302 96.456C397.302 96.644 397.255 96.738 397.161 96.738C396.44 96.738 395.625 96.7223 394.717 96.691C393.808 96.6596 392.821 96.644 391.756 96.644C390.722 96.644 389.735 96.6596 388.795 96.691C387.855 96.7223 387.024 96.738 386.304 96.738C386.21 96.738 386.163 96.644 386.163 96.456C386.163 96.268 386.21 96.174 386.304 96.174C387.494 96.174 388.387 96.0956 388.983 95.939C389.609 95.7823 390.017 95.469 390.205 94.999C390.424 94.529 390.534 93.8396 390.534 92.931V82.168ZM420.98 83.249L421.403 82.403H433.576L433.905 83.249H420.98ZM444.198 96.174C444.324 96.174 444.386 96.268 444.386 96.456C444.386 96.644 444.324 96.738 444.198 96.738C443.321 96.738 442.412 96.7066 441.472 96.644C440.564 96.5813 439.686 96.55 438.84 96.55C437.869 96.55 437.023 96.5813 436.302 96.644C435.613 96.7066 434.845 96.738 433.999 96.738C433.874 96.738 433.811 96.644 433.811 96.456C433.811 96.268 433.874 96.174 433.999 96.174C435.754 96.174 436.851 95.939 437.289 95.469C437.759 94.999 437.697 94.106 437.101 92.79L426.479 69.948L427.372 69.149L418.301 90.957C417.518 92.8683 417.455 94.2156 418.113 94.999C418.771 95.7823 420.166 96.174 422.296 96.174C422.453 96.174 422.531 96.268 422.531 96.456C422.531 96.644 422.453 96.738 422.296 96.738C421.356 96.738 420.495 96.7066 419.711 96.644C418.928 96.5813 417.941 96.55 416.75 96.55C415.654 96.55 414.761 96.5813 414.071 96.644C413.413 96.7066 412.614 96.738 411.674 96.738C411.549 96.738 411.486 96.644 411.486 96.456C411.486 96.268 411.549 96.174 411.674 96.174C412.52 96.174 413.257 96.0173 413.883 95.704C414.51 95.3906 415.09 94.8266 415.622 94.012C416.186 93.1973 416.782 92.038 417.408 90.534L427.231 66.893C427.294 66.799 427.388 66.752 427.513 66.752C427.67 66.752 427.764 66.799 427.795 66.893L438.699 90.299C439.42 91.8656 440.062 93.0876 440.626 93.965C441.19 94.811 441.754 95.3906 442.318 95.704C442.882 96.0173 443.509 96.174 444.198 96.174Z" fill="white"/>
</svg>
