<svg width="88" height="69" viewBox="0 0 88 69" fill="none" xmlns="http://www.w3.org/2000/svg">
<path d="M34.1661 58.5703C36.8617 58.5703 39.0469 60.7555 39.0469 63.4512C39.0469 66.1468 36.8617 68.332 34.1661 68.332H4.88082C2.18519 68.332 0 66.1468 0 63.4512C0 60.7555 2.18519 58.5703 4.88082 58.5703H34.1661Z" fill="white"/>
<path d="M63.4512 29.2852C66.1468 29.2852 68.332 31.4704 68.332 34.166C68.332 36.8617 66.1468 39.0469 63.4512 39.0469H4.88082C2.18519 39.0469 0 36.8617 0 34.166C0 31.4704 2.18519 29.2852 4.88082 29.2852H63.4512Z" fill="white"/>
<path d="M82.9745 0C85.6701 0 87.8555 2.18521 87.8555 4.88086C87.8555 7.57651 85.6701 9.76172 82.9745 9.76172H4.88081C2.18519 9.76172 0 7.57651 0 4.88086C0 2.18521 2.18519 0 4.88081 0H82.9745Z" fill="white"/>
</svg>
